<?xml version="1.0" standalone="no"?>
<!DOCTYPE svg PUBLIC "-//W3C//DTD SVG 20010904//EN"
 "http://www.w3.org/TR/2001/REC-SVG-20010904/DTD/svg10.dtd">
<svg version="1.0" xmlns="http://www.w3.org/2000/svg"
 width="476.000000pt" height="476.000000pt" viewBox="0 0 476.000000 476.000000"
 preserveAspectRatio="xMidYMid meet">
<metadata>
Created by potrace 1.11, written by Peter Selinger 2001-2013
</metadata>
<g transform="translate(0.000000,476.000000) scale(0.100000,-0.100000)"
fill="#000000" stroke="none">
<path d="M2277 4194 c-1 -1 -38 -4 -82 -8 -233 -17 -459 -81 -678 -191 -398
-201 -721 -565 -879 -990 -32 -86 -72 -232 -83 -305 -4 -25 -9 -54 -11 -65
-10 -54 -17 -172 -16 -285 3 -427 170 -857 457 -1179 287 -321 686 -534 1120
-596 141 -20 457 -10 590 19 17 3 40 9 53 11 12 3 32 7 45 10 72 16 257 85
352 132 242 121 421 262 612 482 l30 34 90 -61 c49 -34 95 -62 101 -62 7 0 12
19 13 48 0 26 2 70 4 97 12 170 15 219 21 295 3 47 7 104 9 128 2 23 1 42 -3
42 -4 0 -83 -38 -177 -83 -93 -46 -216 -106 -272 -133 -57 -27 -103 -51 -103
-54 0 -3 45 -36 100 -73 83 -56 99 -71 91 -85 -16 -29 -182 -196 -249 -251
-218 -177 -522 -315 -782 -356 -19 -3 -51 -8 -70 -11 -79 -12 -339 -12 -430 1
-384 55 -714 218 -980 485 -90 90 -219 254 -256 325 -6 11 -22 41 -36 66 -48
86 -100 214 -133 330 -170 590 -11 1214 420 1644 66 66 134 131 150 144 79 62
235 157 327 200 97 46 287 113 353 125 178 31 241 38 360 38 94 1 253 -10 265
-17 3 -2 26 -6 50 -10 74 -10 221 -52 316 -91 431 -173 773 -514 948 -943 30
-73 86 -265 86 -292 0 -18 -20 -19 -522 -19 l-523 0 -36 33 c-19 17 -55 50
-80 71 -24 22 -71 64 -105 95 -33 31 -100 92 -149 136 -112 100 -130 117 -183
167 -34 31 -48 38 -62 32 -10 -5 -60 -47 -110 -94 -51 -47 -102 -93 -114 -103
-12 -10 -61 -55 -110 -100 -49 -45 -98 -90 -110 -100 -12 -10 -37 -33 -56 -50
-45 -41 -244 -219 -249 -224 -2 -2 43 -3 102 -3 l105 0 53 48 c29 26 64 57 77
69 124 113 198 180 212 193 73 64 176 158 190 173 19 20 7 29 154 -106 103
-95 84 -78 206 -187 52 -47 97 -87 100 -90 3 -3 28 -26 57 -52 l52 -48 629 0
628 0 -7 63 c-62 512 -378 1010 -819 1293 -143 91 -403 206 -516 228 -10 2
-37 9 -59 14 -22 6 -62 14 -90 18 -27 3 -52 8 -55 9 -13 8 -325 26 -333 19z"/>
<path d="M2270 2739 c0 -38 1 -39 35 -39 21 0 35 5 36 13 0 6 2 22 3 35 2 12
0 23 -3 23 -3 1 -21 2 -38 4 -32 2 -33 1 -33 -36z"/>
<path d="M2363 2767 c-4 -6 -8 -24 -10 -39 -3 -27 -1 -28 38 -28 40 0 40 0 37
36 -3 32 -7 37 -30 40 -15 1 -31 -3 -35 -9z"/>
<path d="M2270 2644 c0 -33 1 -34 39 -34 35 0 38 2 36 25 -2 14 1 25 6 25 6 0
9 -6 8 -12 -4 -31 3 -38 36 -38 33 0 35 2 35 34 l0 34 -80 0 -80 0 0 -34z"/>
<path d="M2423 2423 c-10 -4 -13 -66 -13 -264 0 -142 3 -259 8 -260 4 0 17 -2
29 -5 12 -2 26 2 30 9 12 19 10 507 -2 515 -14 9 -37 11 -52 5z"/>
<path d="M3000 2416 c-5 -7 -10 -36 -12 -66 -3 -53 -4 -54 -33 -56 -44 -2 -44
-2 -43 -26 2 -35 16 -47 49 -43 l29 4 0 -159 c0 -162 2 -171 40 -177 35 -5 40
16 40 178 l0 158 25 -5 c29 -5 65 11 65 29 0 24 -18 40 -47 42 -15 2 -31 3
-35 4 -5 1 -8 25 -8 55 0 31 -5 58 -12 63 -17 13 -46 12 -58 -1z"/>
<path d="M3192 2422 c-13 -4 -17 -112 -4 -113 4 0 19 -2 35 -4 16 -2 27 1 28
8 6 58 4 99 -5 104 -13 9 -38 11 -54 5z"/>
<path d="M1328 2294 c-56 -19 -87 -43 -114 -90 -52 -88 -41 -188 29 -258 47
-46 92 -64 154 -60 73 5 159 64 178 125 8 25 7 26 -28 33 -26 4 -57 -14 -57
-34 0 -16 -60 -52 -93 -54 -56 -5 -113 34 -131 89 -6 20 -2 20 147 20 83 -1
158 1 165 3 17 6 15 65 -3 110 -41 96 -152 149 -247 116z m128 -81 c26 -17 57
-60 50 -71 -3 -6 -230 -9 -244 -3 -2 0 5 15 15 31 35 60 122 81 179 43z"/>
<path d="M2085 2294 c-37 -14 -130 -92 -120 -102 2 -3 -2 -16 -9 -31 -17 -33
-13 -119 7 -157 81 -154 288 -157 367 -6 26 50 31 106 14 162 -34 108 -155
171 -259 134z m138 -86 c35 -25 47 -48 53 -101 5 -49 -18 -101 -56 -128 -108
-76 -240 47 -186 174 33 79 118 104 189 55z"/>
<path d="M3435 2294 c-144 -52 -187 -239 -78 -347 110 -111 290 -65 337 87 50
160 -104 314 -259 260z m135 -83 c14 -9 33 -33 42 -52 47 -91 -16 -204 -112
-202 -150 3 -178 223 -35 270 38 13 73 7 105 -16z"/>
<path d="M3872 2294 c-26 -9 -48 -12 -55 -6 -11 8 -18 8 -54 4 -10 -2 -13 -48
-13 -197 0 -107 3 -196 8 -196 32 -6 62 -3 63 6 1 5 3 67 4 137 2 140 12 168
62 185 52 18 105 -2 123 -48 7 -16 12 -81 13 -149 1 -131 7 -146 55 -133 21 5
22 11 22 134 0 134 -10 180 -48 222 -42 46 -116 63 -180 41z"/>
<path d="M1581 2286 c-7 -8 14 -70 65 -191 42 -99 80 -185 86 -192 15 -19 59
-11 73 12 13 21 155 357 155 367 0 9 -38 17 -59 11 -13 -3 -36 -46 -76 -141
-32 -76 -58 -138 -60 -140 -1 -1 -28 61 -60 138 -32 77 -60 141 -64 141 -30 6
-52 4 -60 -5z"/>
<path d="M2543 2287 c-13 -16 -8 -256 6 -299 6 -19 22 -45 34 -56 49 -46 153
-60 203 -27 18 12 24 12 33 1 10 -11 28 -13 64 -7 4 0 7 86 7 190 0 196 -4
213 -43 207 -32 -4 -36 -20 -39 -153 -3 -129 -4 -133 -30 -160 -38 -37 -98
-38 -135 0 -26 26 -27 29 -28 162 -1 74 -4 137 -7 140 -12 13 -56 14 -65 2z"/>
<path d="M3198 2293 c-16 -4 -18 -22 -18 -199 0 -107 3 -194 8 -195 4 0 17 -2
29 -5 14 -2 26 3 31 14 5 9 8 97 8 195 -1 145 -4 180 -16 187 -8 5 -17 9 -20
9 -3 -1 -13 -3 -22 -6z"/>
</g>
</svg>
